<svg class='monster' xmlns="http://www.w3.org/2000/svg" viewBox="0 0 150.62 147.13">
    <g id="Objects">
      <path d="M23.11,14.38a16,16,0,0,1,4.06-.56h.09a31.9,31.9,0,0,0,.66-5C28,8,28.48,4.46,27.86,4a.94.94,0,0,1-.33-1.12,27.05,27.05,0,0,0-11.19.53C19.64,6,21.85,10.43,23.11,14.38Z" class="pinkFill"/>
      <path d="M3.6,17.1a32.81,32.81,0,0,1,12,2,14.89,14.89,0,0,1,4.67-3.68C19,11.66,16.68,7.52,13.39,5.36A.83.83,0,0,1,13,4.73C7.78,7.37,4.92,11.9,3.6,17.1Z" class="pinkFill"/>
      <path d="M17.85,46.9C15.16,49,12.06,50.38,9.1,52a25.54,25.54,0,0,0,5.14,8,11.18,11.18,0,0,0,5.54,3.13,44.08,44.08,0,0,1,3.44-12.37A14.79,14.79,0,0,1,17.85,46.9Z" class="pinkFill"/>
      <path d="M22.82,31.14a10.34,10.34,0,0,0,4.79,1.36c.86,0,1.73.07,2.6.07,0-1.33.15-2.66.1-4-3.13.19-6.3-1.85-5.58-4.34C21.22,24.79,18.95,28.9,22.82,31.14Z" class="pinkFill"/>
      <path d="M25.52,51.47a39.14,39.14,0,0,0-3.1,11.94,31.57,31.57,0,0,0,7.78-1.36,63.48,63.48,0,0,1-.67-10.34A14.27,14.27,0,0,1,25.52,51.47Z" class="pinkFill"/>
      <path d="M35.89,19.44a7.67,7.67,0,0,1,.22,1.1,10.23,10.23,0,0,1,0,2.18l.14,0A85.25,85.25,0,0,1,44.21,26,11.62,11.62,0,0,0,45.53,14.7c-3.15,1.56-6.87,2.23-9.45,4.59Z" class="pinkFill"/>
      <path d="M3,20a42.44,42.44,0,0,0,.47,13.49,35.59,35.59,0,0,0,8.29-2.17c0-.07,0-.15,0-.22a17.26,17.26,0,0,1,2-9.26A31.11,31.11,0,0,0,3,20Z" class="pinkFill"/>
      <path d="M36.95,31.52a15.84,15.84,0,0,0,5-3c-2.25-1-4.48-2-6.81-2.78a6.38,6.38,0,0,1-2.1,2c0,1.57-.1,3.14-.13,4.71A16.51,16.51,0,0,0,36.95,31.52Z" class="pinkFill"/>
      <path d="M8.16,49.76c2.74-1.58,5.67-2.84,8.22-4.71A27.1,27.1,0,0,1,12.09,34a43,43,0,0,1-8,2.26c.2.82.41,1.62.63,2.39C5.68,42,6.72,46,8.16,49.76Z" class="pinkFill"/>
      <path d="M34.88,17.26l.06-.06c2.67-2.44,6.36-3,9.51-4.61-2.77-4.39-7.94-7.48-13.61-9A22.71,22.71,0,0,1,30.74,7a37.06,37.06,0,0,1-1,7.13A8.21,8.21,0,0,1,34.88,17.26Z" class="pinkFill"/>
      <path d="M48,12.71a1.1,1.1,0,0,0-.67-1.42c-3.52-6.65-11.2-10-18.46-11-7.6-1-16.43-.07-22,5.86-5.84,6.25-7.2,14.74-6.84,23,.43,10,4.33,20.94,9.27,29.52,5.47,9.49,13.28,8.06,22.43,5.7a2.05,2.05,0,0,0,1.48-2.13,58.29,58.29,0,0,1-1-12.49,1.58,1.58,0,0,0-.06-.42c0-.44-.23-.75-.85-.67-6.47.85-11.07-2.68-14.08-8.16a26.29,26.29,0,0,1-2.7-8.08,1.34,1.34,0,0,0-.21-1.68,14,14,0,0,1,1.51-8.57,2.42,2.42,0,0,0,1.24-1.57c3.79-3.82,11.83-6,15.32-1.22,1.34,1.83,1.56,4.47,0,5.63a1.66,1.66,0,0,0-1.53.56l-.19,0c-.81,0-4.47-.6-2.88-1.74.56-.4,1.42-2.23.22-2.46-6.7-1.31-13.45,4.89-8.38,11.28,4.56,5.74,16.69,2.46,21.75-.63A15.89,15.89,0,0,0,48,12.71ZM24.72,24.24c-.72,2.48,2.45,4.52,5.58,4.34,0,1.33,0,2.66-.1,4-.87,0-1.74,0-2.6-.07a10.34,10.34,0,0,1-4.79-1.36C18.95,28.9,21.22,24.79,24.72,24.24Zm4.8,27.48a63.48,63.48,0,0,0,.67,10.34,31.57,31.57,0,0,1-7.78,1.36,39.14,39.14,0,0,1,3.1-11.94A14.27,14.27,0,0,0,29.53,51.72ZM19.79,63.14A11.18,11.18,0,0,1,14.24,60,25.54,25.54,0,0,1,9.1,52c3-1.67,6.06-3.06,8.75-5.14a14.79,14.79,0,0,0,5.38,3.87A44.08,44.08,0,0,0,19.79,63.14ZM27.53,2.92A.94.94,0,0,0,27.86,4c.61.42.11,4,.06,4.78a31.9,31.9,0,0,1-.66,5h-.09a16,16,0,0,0-4.06.56C21.85,10.43,19.64,6,16.35,3.45A27.05,27.05,0,0,1,27.53,2.92ZM13,4.73a.83.83,0,0,0,.39.63c3.29,2.16,5.59,6.31,6.88,10.1a14.89,14.89,0,0,0-4.67,3.68,32.81,32.81,0,0,0-12-2C4.92,11.9,7.78,7.37,13,4.73ZM11.77,31.12c0,.07,0,.15,0,.22a35.59,35.59,0,0,1-8.29,2.17A42.44,42.44,0,0,1,3,20a31.11,31.11,0,0,1,10.73,1.84A17.26,17.26,0,0,0,11.77,31.12ZM12.09,34a27.1,27.1,0,0,0,4.3,11.1c-2.55,1.87-5.48,3.12-8.22,4.71C6.72,46,5.68,42,4.7,38.62c-.22-.77-.43-1.57-.63-2.39A43,43,0,0,0,12.09,34ZM30.74,7a22.71,22.71,0,0,0,.1-3.35c5.67,1.5,10.84,4.59,13.61,9-3.15,1.57-6.84,2.17-9.51,4.61l-.06.06a8.21,8.21,0,0,0-5.1-3.17A37.06,37.06,0,0,0,30.74,7ZM44.21,26a85.25,85.25,0,0,0-7.92-3.22l-.14,0a10.23,10.23,0,0,0,0-2.18,7.67,7.67,0,0,0-.22-1.1l.19-.15c2.58-2.36,6.31-3,9.45-4.59A11.62,11.62,0,0,1,44.21,26ZM33.06,27.71a6.38,6.38,0,0,0,2.1-2c2.33.77,4.56,1.8,6.81,2.78a15.84,15.84,0,0,1-5,3,16.51,16.51,0,0,1-4,.9C33,30.85,33.09,29.28,33.06,27.71Z"/>
      <path d="M146.92,37c-3.58,0-7.15-.14-10.72-.16a17.8,17.8,0,0,1-1.52,4.38c3.13,2.53,7.44,6.33,11.54,6.18a.93.93,0,0,1,.61.16,24.13,24.13,0,0,0,1.08-11A1.52,1.52,0,0,1,146.92,37Z" class="pinkFill"/>
      <path d="M122.1,50.14c-.35.07-.69.12-1,.15-.16,4.76-.87,9.55-.31,14.29,0,0,0,0,0,.07a26.07,26.07,0,0,0,7.07-.6,27.85,27.85,0,0,0,6.71-2.47,106.73,106.73,0,0,0-7.83-12.89A20.37,20.37,0,0,1,122.1,50.14Z" class="pinkFill"/>
      <path d="M132.87,44a15.93,15.93,0,0,1-3.34,3.14,105.58,105.58,0,0,1,7.59,12.56,1,1,0,0,1,.09.31,25.16,25.16,0,0,0,8.5-9.79,1.24,1.24,0,0,1-.45.11C140.83,50.48,136.3,46.74,132.87,44Z" class="pinkFill"/>
      <path d="M135.87,26.5a24.25,24.25,0,0,1,.72,7.4h.07c3.59,0,7.19.14,10.78.16,0-.14-.06-.27-.09-.41a31.06,31.06,0,0,0-4.73-10.35A23.15,23.15,0,0,1,135.87,26.5Z" class="pinkFill"/>
      <path d="M114.8,23.41a29.16,29.16,0,0,1-5.88,1.72,9,9,0,0,0,.73,1.11,15.4,15.4,0,0,0,7.13,5.26,16.86,16.86,0,0,1,1-4.93A6.13,6.13,0,0,1,114.8,23.41Z" class="pinkFill"/>
      <path d="M119.47,31.7a1.27,1.27,0,0,1,0,.19,7.19,7.19,0,0,0,.8-.06c2.41-.33,6.69-2.39,3.72-5.21-.34-.32-.69-.62-1-.92a3.31,3.31,0,0,1-2.75,1.44A15.44,15.44,0,0,0,119.47,31.7Z" class="pinkFill"/>
      <path d="M118.36,50.3c-3.26-.39-5.79-2.22-8.56-4.67-2.49-2.2-2.89-.71-5.12.77l-2.81,1.86c.84,5.29,2,11,7.35,13.47a31.26,31.26,0,0,0,8.7,2.63C117.61,59.69,118.27,55,118.36,50.3Z" class="pinkFill"/>
      <path d="M108,22.38a19.74,19.74,0,0,0,6.43-1.57,6.6,6.6,0,0,1,1.5-3.44c-2-2.4-2.76-5.32-4.13-8.09-2.48,1.13-4.17,3.43-4.41,7.26a19.55,19.55,0,0,0,.43,5.87Z" class="pinkFill"/>
      <path d="M127,11v0a37.5,37.5,0,0,0-8-2.31,15.54,15.54,0,0,0-4.08-.18c1,2.4,1.76,4.91,3.58,6.85l0,0A9.65,9.65,0,0,1,125,14.6,28.6,28.6,0,0,0,127,11Z" class="pinkFill"/>
      <path d="M141.19,21.4a35.4,35.4,0,0,0-12-9.46c-.6,1.2-1.4,2.3-2,3.5a15.85,15.85,0,0,1,7.9,8.6A25,25,0,0,0,141.19,21.4Z" class="pinkFill"/>
      <path d="M143.12,18.44a39,39,0,0,0-24.2-12.87c-9.52-1-14.45,5.5-14.3,14.61.13,7.58,8,16.85,16.34,14.34,7.8-2.34,9.08-7.78,2.47-12.6-1-.73-2.39.61-2.43,1.63-.09,2.37-2.81-.78-3.6-2a1.71,1.71,0,0,0,.09-.35,1.06,1.06,0,0,0-.42-.95c0-3.24,5.31-3,7.18-2.56,3.89.91,6.46,4.43,8.06,7.81,4.15,8.79,1.12,19-8.71,21.61-4,1.08-7.36-.08-10.37-2.73-1.4-1.24-2.67-2.78-4.59-3.15a4.19,4.19,0,0,0-3.52,1.43,28.14,28.14,0,0,1-5,4,1.82,1.82,0,0,0-.46.46A1.9,1.9,0,0,0,99,48.58c1.23,7.92,3.12,13.86,11,17,8.46,3.37,18.27,2.28,26.2-1.91C152.76,54.95,155,32,143.12,18.44Zm4.32,15.62c-3.59,0-7.19-.15-10.78-.16h-.07a24.25,24.25,0,0,0-.72-7.4,23.15,23.15,0,0,0,6.75-3.21,31.06,31.06,0,0,1,4.73,10.35C147.39,33.79,147.41,33.92,147.44,34.06Zm-40-17.52c.24-3.82,1.93-6.13,4.41-7.26C113.21,12,114,15,116,17.37a6.6,6.6,0,0,0-1.5,3.44A19.74,19.74,0,0,1,108,22.38l-.17,0A19.55,19.55,0,0,1,107.43,16.54Zm15.48,9.17c.35.3.7.6,1,.92,3,2.82-1.3,4.88-3.72,5.21a7.19,7.19,0,0,1-.8.06,1.27,1.27,0,0,0,0-.19,15.44,15.44,0,0,1,.7-4.56A3.31,3.31,0,0,0,122.91,25.7Zm-5.16.87a16.86,16.86,0,0,0-1,4.93,15.4,15.4,0,0,1-7.13-5.26,9,9,0,0,1-.73-1.11,29.16,29.16,0,0,0,5.88-1.72A6.13,6.13,0,0,0,117.76,26.57Zm.76-11.2,0,0c-1.83-1.94-2.58-4.45-3.58-6.85a15.54,15.54,0,0,1,4.08.18A37.5,37.5,0,0,1,127,11v0a28.6,28.6,0,0,1-2,3.59A9.65,9.65,0,0,0,118.52,15.37Zm8.68.07c.59-1.2,1.38-2.3,2-3.5a35.4,35.4,0,0,1,12,9.46,25,25,0,0,1-6.1,2.64A15.85,15.85,0,0,0,127.2,15.44Zm-18,46.3c-5.35-2.52-6.51-8.18-7.35-13.47l2.81-1.86c2.23-1.48,2.63-3,5.12-.77,2.77,2.45,5.3,4.28,8.56,4.67-.09,4.69-.75,9.39-.44,14.07A31.26,31.26,0,0,1,109.21,61.74Zm18.62,2.32a26.07,26.07,0,0,1-7.07.6s0,0,0-.07c-.56-4.75.15-9.53.31-14.29.33,0,.67-.09,1-.15a20.37,20.37,0,0,0,4.61-1.44,106.73,106.73,0,0,1,7.83,12.89A27.85,27.85,0,0,1,127.84,64.06ZM137.21,60a1,1,0,0,0-.09-.31,105.58,105.58,0,0,0-7.59-12.56A15.93,15.93,0,0,0,132.87,44c3.42,2.76,8,6.5,12.4,6.33a1.24,1.24,0,0,0,.45-.11A25.16,25.16,0,0,1,137.21,60Zm9.6-12.44a.93.93,0,0,0-.61-.16c-4.1.15-8.41-3.65-11.54-6.18a17.8,17.8,0,0,0,1.52-4.38c3.57,0,7.15.15,10.72.16a1.52,1.52,0,0,0,1-.43A24.13,24.13,0,0,1,146.82,47.55Z"/>
      <path d="M112.2,42.27c-2.63-10.84-14.76-6.67-22.93-6.76-7.82-.08-15.64-.46-23.46-.17-7.46.28-14.87.9-22.34.83-4.33,0-8.92-.19-13.12,1.06A2.12,2.12,0,0,0,28.87,39v6.91C28.92,53,29.43,60,30,67.09c.48,5.61-.48,11.17-.14,16.77.24,3.92,1,7.46,4.33,9.82s8.6,2.65,12.72,2.85c4.77.22,9.54-.14,14.31-.18h.37s0,0,0,0c0,3.33-.87,6.54-.87,9.87,0,3.75.21,7.43,0,11.19-.36,6.46.45,13,1.27,19.45-.83,0-1.66,0-2.5,0a2,2,0,0,0-1.84,1.83c.06,1.82.17,3.66.22,5.48,0,.57.24,1.09.9,1.09,3.15,0,6.29.14,9.43,0a2.06,2.06,0,0,0,1.84-1.83c.21-7.31,0-14.66-.46-22-.54-7.79-1.35-16.92.91-24.6,2.54.26,5.08.56,7.6.76l.74.05a1.09,1.09,0,0,0,0,.54c2.38,7,2,15.21,1.58,22.47-.51,8.41-1,16.79-.71,25.23,0,.59.24,1.06.9,1.09,3.15.14,6.28,0,9.43,0a2.05,2.05,0,0,0,1.84-1.83c.05-1.83.16-3.65.22-5.48a.94.94,0,0,0-.9-1.09c-1.2,0-2.38,0-3.57,0a141.42,141.42,0,0,0,1.4-20.18,104.79,104.79,0,0,1,0-11.19c.26-3-.68-6-.84-9,2,.07,4,.12,6,.13,2.86,0,5.61,0,7.93-1.81,2.6-2.06,3.76-6,5-8.88A58.74,58.74,0,0,0,111.37,72C112.57,62.55,114.49,51.69,112.2,42.27Z"/>
      <path d="M98.91,55.88c-.72-5.08-2.59-6.64-7.62-7.07-6.67-.58-13.51.52-20.14,1.12-8.74.79-17.52.42-26.28.4A2,2,0,0,0,43,52.15v3.32s0,.07,0,.1a1.16,1.16,0,0,0,0,.25c.65,4.66-1.06,9.9-1.7,14.5-.4,2.88-1.38,8.2.94,10.63,2.79,2.93,8.05,1,11.35.14S60,80,60.92,83.69a11,11,0,0,0,2.81,4.92c.57.6,1.54-.1,1.94-.52a16.09,16.09,0,0,0,2.18-3c1.46-2.44,2.36-3.33,3.58-.17.85,2.21,1.82,3.66,4.31,3a5.89,5.89,0,0,0,4-4.19c.73-2.56,1.19,1.57,1.22,2.35,0,1.11,1.31,2.15,2,2.83,3.32,3.24,5.13-3.21,5.5-5.27.86-4.78,3.87-2.21,7.12-3.92a7.09,7.09,0,0,0,3.32-5.11A59,59,0,0,0,98.91,55.88Z" class="pinkFill"/>
      <path d="M52.89,59.94c-2,.28-3.07,1.19-2.71,2.3.45,1.38,4.06,1.88,6.41,1.38,2.17-.46,3.07-1.43,2-2.48a7.05,7.05,0,0,0-4.87-1.42Z"/>
      <path d="M85.4,59.94c-2,.28-3.07,1.19-2.71,2.3.45,1.38,4.06,1.88,6.41,1.38,2.17-.46,3.07-1.43,2-2.48a7.05,7.05,0,0,0-4.88-1.42Z"/>
    </g>
</svg>
