<svg class='monster' xmlns="http://www.w3.org/2000/svg" viewBox="0 0 147.96 151.39">
  <g id="Objects">
    <path d="M140.86,31.75c-9.06-14.67-26.51-25.11-43-29.07C77.64-2.17,55.14.29,35,4.31c-11.28.8-22.4,5.89-28.89,15.46C-.93,30.21-2.12,44.49,3.76,55.71,9,65.71,20.49,72.53,29,79.48c10,8.22,19.34,18.06,19.84,31.73,0,1.18,1.46.57,1.67-.23.74-2.75,2.66-4.84,4.5-6.93q1.31,1.2,2.58,2.44a24.84,24.84,0,0,0-2,14.46A61,61,0,0,0,57.78,128l.31,1.2q1.39,4.27-5.79,4.64c0-.88.51-1.78.33-2.67-.48-2.5,1.78-6.3-2.66-6.31-3.65,0-5.14,3.45-5.62,6.51-1.1,7,8.67,13.17,14.68,9.81a8.85,8.85,0,0,0,4.91-8.84,22.8,22.8,0,0,0-1.29-4.95c-.84-2.84-.42-5.73.17-8.57A52.07,52.07,0,0,1,65.71,109a.64.64,0,0,0-.14-.74c.6-.64,1.2-1.27,1.82-1.9,1.27,1.43,2.63,2.76,3.87,4.21.26.3.78,0,1-.13.4-.29.82-.63,1.25-1,4.06,5.94-1.85,10.25-4.71,15.41-1.73,3.13-1.12,7.64,2.37,9.35,3.72,1.82,5.09,3.13,4.94,7.77-.07,2.08-.92,4.82,0,6.82,1.83,3.9,7.11,2.7,9.78.44,2.38-2,4.08-6,1.73-8.57a4.14,4.14,0,0,0-3.94-.8c-1.11.58-2.12,5.61-3,2-1.29-5.33,3.9-10.59-3-13.07-4.75-1.72,1.5-9,2.53-11.65s.08-5.9-.35-8.76c1.19.64,2.36,1.53,3.4,2.13a1,1,0,0,0,1.37-.55c.45-1,.9-1.92,1.34-2.87l.25.26a.68.68,0,0,0,.16.44c3,3.44,3.91,7.43,3.71,11.93-.12,2.71-1.4,4.55-1.06,7.3.11.85.83,2.34,1.91,2.39,1.25.06,3.85-.52,3.86,1.88,0,.68-.44,1.57-.25,2.26,1.66,6,9.75,7.77,14.48,4.52,5.78-4,3.16-14.45-4.34-13.23-4.08.66-4.1,7.8.83,5.28a5.15,5.15,0,0,1-.66,3.42l-4.66.26a10.14,10.14,0,0,1-.55-2.63c-.22-1.75-.19-3.53-.4-5.29s-5.26-3.9-5.45-3.18c1.82-6.93,4.37-11.65-.35-18.08A35.2,35.2,0,0,1,113,88.51c9.58-3.45,18.81-5.59,26.76-12.38C152.37,65.41,148.55,44.21,140.86,31.75ZM75,109.88h0Z"/>
    <path d="M45.46,21.88a15.56,15.56,0,0,0-17.34.1L28,22l-.15.1,0,0-.1.1-.19.2,0,0c-4.9,5.82-4.7,12.69,1.89,17.06,5.73,3.8,14.36,4.09,19.31-1S50.32,25.39,45.46,21.88Z" class="pink-fill"/>
    <path d="M79.22,41.14c5.21-.33,10.25-5.42,10.52-10.61,0,0,0,0,0-.07s0-.06,0-.09a1.35,1.35,0,0,0,0-.15h0c-.84-5.16-4.37-8.46-9.72-7.81-4.65.56-10.15,4.45-11,9.28C67.86,37.77,73.71,41.49,79.22,41.14Z" class="pink-fill"/>
    <path d="M61.51,27.2a8,8,0,0,0,7-7,.83.83,0,0,0,0-.11.63.63,0,0,0,0-.1c-.56-3.41-2.89-5.6-6.43-5.17-3.08.37-6.72,2.95-7.3,6.14C54,25,57.87,27.43,61.51,27.2Z" class="pink-fill"/>
    <path d="M71.82,68.71c-.56-3.41-2.89-5.6-6.44-5.17-3.08.37-6.71,2.95-7.3,6.14-.74,4,3.14,6.48,6.78,6.25a8,8,0,0,0,7-7,.84.84,0,0,0,0-.11A.63.63,0,0,0,71.82,68.71Z" class="pink-fill"/>
    <path d="M60.14,49.54A10.1,10.1,0,0,0,69,40.65s0,0,0-.05a.71.71,0,0,0,0-.08s0-.09,0-.12h0c-.71-4.32-3.66-7.09-8.15-6.55-3.9.47-8.5,3.73-9.24,7.78C50.62,46.71,55.52,49.83,60.14,49.54Z" class="pink-fill"/>
    <path d="M84.81,52.83a.9.9,0,0,0,0-.16s0,0,0,0h0c-.74-4.51-3.82-7.4-8.5-6.83-4.07.49-8.87,3.89-9.65,8.12-1,5.31,4.14,8.56,9,8.25,4.56-.29,9-4.74,9.2-9.27C84.81,52.86,84.81,52.85,84.81,52.83Z" class="pink-fill"/>
    <path d="M46.53,47.62c-.49-3-2.52-4.88-5.61-4.51-2.69.32-5.86,2.57-6.37,5.36-.64,3.51,2.73,5.66,5.91,5.45a7,7,0,0,0,6.08-6.13.68.68,0,0,0,0-.09A.47.47,0,0,0,46.53,47.62Z" class="pink-fill"/>
    <path d="M103.53,31.46a10.09,10.09,0,0,0,8.82-8.89s0,0,0-.06,0-.05,0-.08,0-.09,0-.12h0c-.71-4.32-3.66-7.09-8.15-6.55-3.9.47-8.5,3.73-9.24,7.78C94,28.64,98.92,31.75,103.53,31.46Z" class="pink-fill"/>
    <path d="M83.91,63.31c-3.71,3.72-.77,9,3,11.13,4.21,2.35,10.7.84,13.84-2.62a1.58,1.58,0,0,0,.33-.53C107.16,60.54,90.35,56.86,83.91,63.31Z" class="pink-fill"/>
    <path d="M117.57,44.84c0-.05,0-.1,0-.15s0-.13,0-.19h0c-1.2-7.36-6.23-12.06-13.87-11.14-6.64.8-14.47,6.35-15.73,13.24-1.59,8.66,6.76,14,14.61,13.47,7.43-.47,14.62-7.73,15-15.13C117.58,44.9,117.57,44.87,117.57,44.84Z" class="pink-fill"/>
    <path d="M33.84,27.58a5.06,5.06,0,0,0-1.5,4.71c.4,2.71,2.8,3.41,5.21,3.11,2.6-.3,5.41-1.9,5.11-4.91a5.12,5.12,0,0,0-5.41-4.21,8.35,8.35,0,0,0-2.81.9Z"/>
    <path d="M83.26,31.51a4.31,4.31,0,0,0-2.07-3.42c-1.83-1.26-3.48-.29-4.53,1.22S75,33.39,77,34.87a4,4,0,0,0,5.29-.73,6.09,6.09,0,0,0,.89-2.07Z"/>
    <path d="M64.19,20.83a2.85,2.85,0,0,0-1.37-2.26c-1.21-.83-2.3-.19-3,.81s-1.07,2.7.23,3.67a2.61,2.61,0,0,0,3.5-.48,4,4,0,0,0,.59-1.37Z"/>
    <path d="M67.54,69.56a2.85,2.85,0,0,0-1.37-2.26c-1.21-.83-2.3-.19-3,.81s-1.07,2.7.23,3.68a2.61,2.61,0,0,0,3.5-.48,4,4,0,0,0,.59-1.37Z"/>
    <path d="M63.52,41.47a3.6,3.6,0,0,0-1.73-2.87c-1.54-1.05-2.92-.25-3.79,1s-1.36,3.42.29,4.66a3.31,3.31,0,0,0,4.43-.61,5.07,5.07,0,0,0,.75-1.73Z"/>
    <path d="M79.14,53.74a3.76,3.76,0,0,0-1.81-3c-1.6-1.1-3-.25-4,1.07s-1.41,3.57.3,4.86A3.45,3.45,0,0,0,78.31,56a5.3,5.3,0,0,0,.78-1.81Z"/>
    <path d="M42.79,48.36a2.48,2.48,0,0,0-1.19-2,1.78,1.78,0,0,0-2.62.71,2.25,2.25,0,0,0,.2,3.21,2.28,2.28,0,0,0,3.05-.42,3.52,3.52,0,0,0,.52-1.19Z"/>
    <path d="M59.79,61.69c4.91-4.45-1.31-8.39-7.59-8-4.67.36-6.38,3.58-3.73,6.71s8.94,3,11.32,1.28Z" class="pink-fill"/>
    <path d="M60.12,62.31c2.82-2.78,3-6-.71-8.11-3.15-1.77-8.86-2.36-11.63.47-2.49,2.55-1.16,6.32,1.81,7.87s7.38,1.8,10.33-.1c.78-.5.8-2.2-.27-1.51-3.51,2.27-10.57,1.25-11.59-3.39-1.24-5.61,17.84-2.84,11.39,3.52C58.7,61.81,59.2,63.22,60.12,62.31Z" class="pink-fill"/>
    <path d="M56.59,59.76a2.09,2.09,0,0,0,.84-2.23c-.27-1.27-1.7-1.56-3.13-1.39s-3.2,1-3,2.38c.2,1.17,1.83,2.08,3.25,1.9A6,6,0,0,0,56.23,60Z"/>
    <path d="M106.92,23.39a3.6,3.6,0,0,0-1.73-2.87c-1.54-1.05-2.92-.25-3.79,1S100,25,101.68,26.2a3.3,3.3,0,0,0,4.43-.61,5.1,5.1,0,0,0,.75-1.73Z"/>
    <path d="M95.59,69.25A3.26,3.26,0,0,0,96,65.87c-.69-1.73-2.54-1.82-4.24-1.24s-3.66,2.13-3,4.08a3.76,3.76,0,0,0,4.54,1.94,6.68,6.68,0,0,0,1.91-1Z"/>
    <path d="M108.33,46.33a6.13,6.13,0,0,0-2.95-4.88c-2.61-1.79-5-.42-6.46,1.74-1.64,2.32-2.31,5.82.49,7.92,2.37,1.72,6.06,1.12,7.55-1a8.66,8.66,0,0,0,1.27-3Z"/>
  </g>
</svg>
