<svg class="monster" xmlns="http://www.w3.org/2000/svg" viewBox="0 0 132.07 132.83">
    <g id="Objects">
        <path d="M130.73,94.55C124.56,96,118,96.26,112,93.85c-6.44-2.61-6.51-10.73-9-16.58,6.54-.53,16.17,7,13.55,13.38a1.05,1.05,0,0,0,1.24,1.5c6.33-1.61,11.38-5.76,8.26-12.59-2.12-4.64-6.59-8.69-11.33-11.74A14.82,14.82,0,0,0,126.67,56.4a1,1,0,0,0-1.32-1.1c-13.66,4.1-26.6,0-34.74-11.57C87,38.64,85.33,33.31,84.15,27.27c-1-5.28-2.39-10.56-6.09-14.66C71.19,5,61.81,1.8,51.83.59,41.29-.69,30-.06,20.17,4.22,1.65,12.28-4.12,37.66,2.88,55.16c4,10.09,13.31,18,21.65,24.42,10.06,7.8,21.24,14.19,32.58,19.92,3.34,4.61,3,16.5-.85,20.48-.46.47-.94,2.08.1,2.27,4.07.75,9.92.21,12.12-4a7.64,7.64,0,0,0,.92-5.68c-.39-1.49-2.93-5.9-2.15-7.65,2.52,7.06,7.37,13.63,14.2,17,4.43,2.19,9.23,3.1,14.06,4a20.07,20.07,0,0,1,4.46,1.36c1.06.46,4.34,2,2.95,2.59-1.21.55-1.82,3.41.11,2.84,3.78-1.12,8.13-1.91,10.52-5.36s.29-7.66-2.91-9.74c-4.22-2.74-10.11-2.91-15-3.43a20.09,20.09,0,0,1-11.31-4.44c-3.69-3.12-3.41-7-2.62-11,4.18,2.41,5,8.23,10,10.14,4.06,1.55,8.6.5,11-3.09.3-.44.44-1.37-.08-1.73-3.77-2.63-7.82-3.84-8.82-8.83-.35-1.73-.27-3.29-.46-4.71,6.8,3.59,9.82,12.81,18.32,14.43,7.59,1.44,17.16-1.34,20.25-9A1.05,1.05,0,0,0,130.73,94.55Z"/>
        <path d="M31.66,15.65C18,19.38,8.26,35,10.75,49.87c3.11,18.65,28,25.48,44.13,18.65C69.8,62.3,76,49.25,68.55,35,61.1,21.9,51.06,13.68,36.77,14.31Z" class="pink-fill"/>
        <path d="M20.77,36.65c-3.33,1.7-4.53,5-1.1,7.34,7.13,4.9,10.07-8.05,1.1-7.34Z"/>
        <path d="M39.83,24.82c-3.33,1.7-4.53,5-1.1,7.34,7.13,4.9,10.07-8.05,1.1-7.34Z"/>
        <path d="M21.38,63.21c2.18-2,5-2.61,7.43-4.15,2.7-1.69,1.46-6.26,1.4-8.88,0-.93,1.29-2.3,2.27-1.88a16.48,16.48,0,0,1,5.2,3.47c.91.9,3.07-.42,4.26-.81,1.58-.52,7.29-1.68,6.62-4.42-.43-1.73-1-3.39-1.4-5.14a2,2,0,0,1,2.26-2.24c2.33.55,5.67,3.86,7.87,3.69,3-.23,7.31-4.27,8.93-6.63a2.15,2.15,0,0,1,.7-.64,36.73,36.73,0,0,0-2-3.31C57.1,20.78,45.57,13.46,31.53,17.14,16.5,21.68,5.86,42,14.81,56.34a25.49,25.49,0,0,0,6.5,6.95Z" class="none-fill"/>
        <path d="M59.14,45.33c-3,1.54-5.53-.24-8.11-1.73.59,2.32.77,4.61-1.3,6.5-3.3,3-8,3.46-11.92,5.35a1.23,1.23,0,0,1-1.36,0,25.64,25.64,0,0,0-3.1-2.7c.19,2.34.22,4.87-1,6.46-2.3,2.91-6,3.48-8.88,5.55a35.63,35.63,0,0,0,26.15,4C57.31,66.89,66.14,62.14,69,54.2a21.69,21.69,0,0,0-1-16.37A27.44,27.44,0,0,1,59.14,45.33Z" class="none-fill"/>
        <path d="M70.56,35.26a42,42,0,0,0-17.74-19.2c-6.75-3.7-13.84-3.79-21-1.9C16,18.94,4.35,38.17,10.28,54.37c5.63,15.39,24.32,20.4,39.06,17.36C66.61,68.18,77.85,52.06,70.56,35.26ZM14.81,56.34C5.86,42,16.5,21.68,31.53,17.14c14-3.68,25.57,3.64,33.39,15.12a36.73,36.73,0,0,1,2,3.31,2.15,2.15,0,0,0-.7.64c-1.62,2.36-6,6.4-8.93,6.63-2.2.17-5.54-3.14-7.87-3.69a2,2,0,0,0-2.26,2.24c.38,1.74,1,3.41,1.4,5.14.67,2.74-5,3.9-6.62,4.42-1.19.39-3.34,1.71-4.26.81a16.48,16.48,0,0,0-5.2-3.47c-1-.43-2.3,1-2.27,1.88.06,2.62,1.3,7.19-1.4,8.88-2.46,1.53-5.25,2.15-7.43,4.15l-.07.08A25.49,25.49,0,0,1,14.81,56.34ZM69,54.2c-2.83,7.95-11.67,12.69-19.38,14.55a35.63,35.63,0,0,1-26.15-4c2.85-2.07,6.58-2.64,8.88-5.55,1.26-1.59,1.23-4.12,1-6.46a25.64,25.64,0,0,1,3.1,2.7,1.23,1.23,0,0,0,1.36,0c3.9-1.88,8.63-2.34,11.92-5.35,2.07-1.89,1.88-4.18,1.3-6.5,2.57,1.49,5.08,3.27,8.11,1.73A27.44,27.44,0,0,0,68,37.82,21.69,21.69,0,0,1,69,54.2Z"/>
    </g>
</svg>
