<svg class="monster" xmlns="http://www.w3.org/2000/svg" viewBox="0 0 113.55 144.06">
  <g id="Objects">
    <path d="M74.63,118.11c-.88.79-.27.5,0,0Z" class="cls-1"/>
    <path d="M87.87,49C83.61,36,72.22,31,60,29.12c.54,2.5.77,5-.94,7.14-2.82,3.55-13,8-15.19,2l0-.06c0-.08-.06-.15-.08-.23a1.77,1.77,0,0,1,.17-1.32c.74-2.9,1.47-5.79,2.24-8.68-1.37,0-2.72-.06-4-.07-5.86.23-11.5,3.86-16.12,8.28l-.08.13A17.9,17.9,0,0,1,22.44,40c-1.17,1.37-2.24,2.75-3.18,4.06-6.2,8.7-5.94,19.52-1,29,5.2,10.07,14.87,15.64,25.42,17.26L63,89c.95-.28,1.88-.58,2.8-.91C82.12,82.13,93.67,66.77,87.87,49Z" class="pink-fill"/>
    <path d="M113.48,116.77c-1.08-6.07-9.09-1-9.79-5.46A50.05,50.05,0,0,0,97.39,94a51.24,51.24,0,0,0-5-7.68c-2.23-2.71-5.58-4.27-8-6.79a38.17,38.17,0,0,0,5.15-7.3c4-7.4,4.46-16,2.38-24a27.68,27.68,0,0,0-3-7.18c4.72-.25,9-5.28,11.31-8.9a24.85,24.85,0,0,0,3.68-18c-1-6-6.64-9.76-10.59-13.81C92.1-.9,90.09,1.42,90,2.58c-.56,10.68-1.59,23.84-14.82,25a2.32,2.32,0,0,0-1.39.75l-.38-.17A50.1,50.1,0,0,0,59,24.59c-1-5.41-1.48-10.84-3.31-16.13-.68-2-3.13.58-3.47,1.38A114.46,114.46,0,0,0,47.27,24l-3.88,0c-6.63.26-12.55,4-17.55,8.41a1.19,1.19,0,0,0-.69-.55c-9.35-3.2-14.55-12-16.84-21.15C8,9.33,6.57,9.53,5.69,10.21c-10.22,8-6.11,35.19,7.86,37.07a24.58,24.58,0,0,0-2.71,11.14A37.26,37.26,0,0,0,20,83.35c-5,9.93-14.62,24.4-9.59,35.66a6.29,6.29,0,0,0-4,4c-1,2.71,1,3.84,3.08,4-.38,3.64,4.57,5.15,8,3.08a7,7,0,0,0,7.72.4c1.58-.89,3.94-4.15,2.22-5.91-8.16-8.36-3.72-21.68,2.72-30.31-1,6.53-2.71,13.17.7,19.34,1.77,3.21,6.11,5.61,5.22,9.75-.6,2.8-2,5.26-2.58,8-3.58.34-7.66,1.55-9.88,4.22-3,3.64-.49,6.05,3.39,7.06,6,1.57,13.74,2.47,19.43-.57,3.15-1.68,4.57-5.05,1.52-6.71a31.33,31.33,0,0,0,.66-4.5c.15-1.77-.35-6.31,1.35-7.38,3.18-2,8.22-1.59,12.12-1.65a38.84,38.84,0,0,0,2,11.26c.75,2.54,1.14,5.35,3.1,7.28,2.64,2.6,9.8.65,13.08.1,3-.51,9.14-2.47,8.29-6.75-1.19-6-8.4-4.1-13.06-4-.4-2.24-.79-4.47-1.06-6.73a23.6,23.6,0,0,1,.14-5l.16-.14a21.91,21.91,0,0,0,7-11.09c1.61-6.91-1.06-15.34-7.09-19.27l.07,0h0c4.49,3.6,9,7.21,12.55,11.74,4,5.08,6,11.46,7.34,17.72.55,2.62.17,4.87-.06,7.49-.1,1.12.32,2.75,1.51,3.19a5.42,5.42,0,0,0,5.23-.81c1.19,2.53,5.83,1.19,6.53-2,2.3-.26,4.12-2.11,3.44-3.85A3.78,3.78,0,0,0,113.48,116.77Zm-38.85,1.35c-.27.5-.88.79,0,0Zm-8.87-30c-.92.34-1.86.64-2.8.91L43.65,90.33c-10.55-1.61-20.23-7.19-25.42-17.26-4.91-9.5-5.16-20.32,1-29,.94-1.32,2-2.69,3.18-4.06a17.9,17.9,0,0,0,3.49-3.64l.08-.13c4.62-4.42,10.25-8.05,16.12-8.28,1.32,0,2.67,0,4,.07-.77,2.88-1.5,5.78-2.24,8.68A1.77,1.77,0,0,0,43.75,38c0,.08.06.15.08.23l0,.06c2.21,6,12.37,1.53,15.19-2,1.71-2.16,1.48-4.65.94-7.14C72.22,31,83.61,36,87.87,49,93.67,66.77,82.12,82.13,65.76,88.1Z"/>
    <path d="M83.65,77.07l-.17-.41c-.16-.39-.51-.41-.85-.24-2.17-1.58-3.4-6.64-5.26-8.29-.52-.46-1.21.19-1.49.6C74.24,71.14,72.54,73.51,71,76c-2.7-1.92-5.05-4.23-7.61-6.32-.51-.42-1.25.14-1.49.6a31,31,0,0,1-5.15,7.14c-1.86-3.09-4.28-8.64-8.37-6.83-3.14,1.39-6.58,5.14-8.63,8.37-1.72-2.41-4.59-6.52-7.35-5.66C28.67,74.4,25.83,78,22.14,79.47c-1,.42-1,2.29.31,1.74a29.76,29.76,0,0,0,7.94-4.89c3.46-2.89,6.43,2.53,8.38,5,.48.62,1.32.14,1.62-.44,1.46-2.8,4.11-5.25,6.44-7.31,4.17-3.67,6.65,3,8.66,5.95a.82.82,0,0,0,1.24,0A33.32,33.32,0,0,0,62.66,72a82.16,82.16,0,0,0,7.6,6.22c.57.38,1.19-.12,1.49-.6,1.51-2.42,3.17-4.74,4.79-7.08,1.8,2.37,3.05,7.31,5.72,8.2C83.13,79,84,77.82,83.65,77.07Z"/>
    <path d="M83.64,49.7a10.21,10.21,0,0,0-4.47-5.45c-2.11-1.15-4.21-.92-6.51-1.14a1.79,1.79,0,0,0-1.22.39c-4.65,2.21-9,9-7.07,14.21,2.15,5.86,10.29,7.46,15.38,4.65C84.15,59.94,85.34,54.13,83.64,49.7Z"/>
    <path d="M40.69,47.86c-2.49-1.26-4.67-1-7.3-1.32A1.82,1.82,0,0,0,32,47c-5.46,2.74-10.17,9.54-6.35,15.46,2.94,4.55,11,5.84,15.71,3.85a9.32,9.32,0,0,0,5-12.66A12.61,12.61,0,0,0,40.69,47.86Z"/>
    <path d="M34.27,53.56c-2.32,1.19-3.16,3.47-.77,5.11,5,3.42,7-5.61.77-5.11Z" class="pink-fill"/>
    <path d="M73.73,50.61c-2.32,1.19-3.16,3.47-.77,5.11,5,3.42,7-5.61.77-5.11Z" class="pink-fill"/>
    </g>
</svg>
